<mxfile host="65bd71144e">
    <diagram id="U1IKZLQ_uAe4QQoCZq5D" name="ページ1">
        <mxGraphModel dx="765" dy="1162" grid="1" gridSize="10" guides="1" tooltips="1" connect="1" arrows="1" fold="1" page="1" pageScale="1" pageWidth="827" pageHeight="1169" background="none" math="0" shadow="1">
            <root>
                <mxCell id="0"/>
                <mxCell id="1" parent="0"/>
                <mxCell id="2" value="シフト表" style="rounded=1;whiteSpace=wrap;html=1;" vertex="1" parent="1">
                    <mxGeometry x="364" y="120" width="120" height="30" as="geometry"/>
                </mxCell>
                <mxCell id="4" value="サインイン・ログインページ" style="rounded=1;whiteSpace=wrap;html=1;" vertex="1" parent="1">
                    <mxGeometry x="184" y="50" width="180" height="30" as="geometry"/>
                </mxCell>
                <mxCell id="5" value="希望休送信" style="rounded=1;whiteSpace=wrap;html=1;" vertex="1" parent="1">
                    <mxGeometry x="524" y="190" width="120" height="30" as="geometry"/>
                </mxCell>
                <mxCell id="6" value="お問い合わせ" style="rounded=1;whiteSpace=wrap;html=1;" vertex="1" parent="1">
                    <mxGeometry x="524" y="50" width="120" height="30" as="geometry"/>
                </mxCell>
                <mxCell id="7" value="ユーザーリスト" style="rounded=1;whiteSpace=wrap;html=1;" vertex="1" parent="1">
                    <mxGeometry x="184" y="120" width="120" height="30" as="geometry"/>
                </mxCell>
                <mxCell id="9" value="" style="edgeStyle=segmentEdgeStyle;endArrow=classic;html=1;curved=0;rounded=1;endSize=8;startSize=8;exitX=0.5;exitY=1;exitDx=0;exitDy=0;entryX=1;entryY=0.5;entryDx=0;entryDy=0;startArrow=classic;startFill=1;" edge="1" parent="1" source="6" target="2">
                    <mxGeometry width="50" height="50" relative="1" as="geometry">
                        <mxPoint x="404" y="170" as="sourcePoint"/>
                        <mxPoint x="454" y="120" as="targetPoint"/>
                        <Array as="points">
                            <mxPoint x="584" y="135"/>
                        </Array>
                    </mxGeometry>
                </mxCell>
                <mxCell id="10" value="" style="edgeStyle=segmentEdgeStyle;endArrow=classic;html=1;curved=0;rounded=1;endSize=8;startSize=8;exitX=0;exitY=0.5;exitDx=0;exitDy=0;startArrow=classic;startFill=1;entryX=0.5;entryY=1;entryDx=0;entryDy=0;" edge="1" parent="1" source="5" target="2">
                    <mxGeometry width="50" height="50" relative="1" as="geometry">
                        <mxPoint x="594" y="90" as="sourcePoint"/>
                        <mxPoint x="424" y="160" as="targetPoint"/>
                        <Array as="points">
                            <mxPoint x="424" y="205"/>
                        </Array>
                    </mxGeometry>
                </mxCell>
                <mxCell id="11" value="" style="edgeStyle=segmentEdgeStyle;endArrow=classic;html=1;curved=0;rounded=1;endSize=8;startSize=8;exitX=1;exitY=0.5;exitDx=0;exitDy=0;startArrow=none;startFill=0;entryX=0.5;entryY=0;entryDx=0;entryDy=0;" edge="1" parent="1" source="4" target="2">
                    <mxGeometry width="50" height="50" relative="1" as="geometry">
                        <mxPoint x="534" y="215" as="sourcePoint"/>
                        <mxPoint x="434" y="160" as="targetPoint"/>
                        <Array as="points">
                            <mxPoint x="424" y="65"/>
                        </Array>
                    </mxGeometry>
                </mxCell>
                <mxCell id="13" value="" style="edgeStyle=segmentEdgeStyle;endArrow=classic;html=1;curved=0;rounded=1;endSize=8;startSize=8;exitX=0;exitY=0.5;exitDx=0;exitDy=0;startArrow=classic;startFill=1;entryX=1;entryY=0.5;entryDx=0;entryDy=0;" edge="1" parent="1" source="2" target="7">
                    <mxGeometry width="50" height="50" relative="1" as="geometry">
                        <mxPoint x="534" y="215" as="sourcePoint"/>
                        <mxPoint x="434" y="160" as="targetPoint"/>
                        <Array as="points">
                            <mxPoint x="334" y="135"/>
                            <mxPoint x="334" y="135"/>
                        </Array>
                    </mxGeometry>
                </mxCell>
                <mxCell id="48" value="users" style="shape=table;startSize=30;container=1;collapsible=0;childLayout=tableLayout;fontStyle=1;align=center;fontSize=13;strokeWidth=2;fillColor=#f5f5f5;strokeColor=#666666;fillStyle=auto;rounded=1;fontColor=#333333;" vertex="1" parent="1">
                    <mxGeometry x="184" y="355.5" width="160" height="229" as="geometry"/>
                </mxCell>
                <mxCell id="49" value="" style="shape=tableRow;horizontal=0;startSize=0;swimlaneHead=0;swimlaneBody=0;top=0;left=0;bottom=0;right=0;collapsible=0;dropTarget=0;fillColor=none;points=[[0,0.5],[1,0.5]];portConstraint=eastwest;rounded=1;" vertex="1" parent="48">
                    <mxGeometry y="30" width="160" height="29" as="geometry"/>
                </mxCell>
                <mxCell id="50" value="userid" style="shape=partialRectangle;html=1;whiteSpace=wrap;connectable=0;fillColor=none;top=0;left=0;bottom=0;right=0;overflow=hidden;fontColor=#CCCCCC;rounded=1;" vertex="1" parent="49">
                    <mxGeometry width="160" height="29" as="geometry">
                        <mxRectangle width="160" height="29" as="alternateBounds"/>
                    </mxGeometry>
                </mxCell>
                <mxCell id="53" value="" style="shape=tableRow;horizontal=0;startSize=0;swimlaneHead=0;swimlaneBody=0;top=0;left=0;bottom=0;right=0;collapsible=0;dropTarget=0;fillColor=none;points=[[0,0.5],[1,0.5]];portConstraint=eastwest;rounded=1;" vertex="1" parent="48">
                    <mxGeometry y="59" width="160" height="27" as="geometry"/>
                </mxCell>
                <mxCell id="54" value="password" style="shape=partialRectangle;html=1;whiteSpace=wrap;connectable=0;fillColor=none;top=0;left=0;bottom=0;right=0;overflow=hidden;fontColor=#CCCCCC;rounded=1;" vertex="1" parent="53">
                    <mxGeometry width="160" height="27" as="geometry">
                        <mxRectangle width="160" height="27" as="alternateBounds"/>
                    </mxGeometry>
                </mxCell>
                <mxCell id="82" style="shape=tableRow;horizontal=0;startSize=0;swimlaneHead=0;swimlaneBody=0;top=0;left=0;bottom=0;right=0;collapsible=0;dropTarget=0;fillColor=none;points=[[0,0.5],[1,0.5]];portConstraint=eastwest;rounded=1;" vertex="1" parent="48">
                    <mxGeometry y="86" width="160" height="29" as="geometry"/>
                </mxCell>
                <mxCell id="83" value="firstname" style="shape=partialRectangle;html=1;whiteSpace=wrap;connectable=0;fillColor=none;top=0;left=0;bottom=0;right=0;overflow=hidden;fontColor=#CCCCCC;rounded=1;" vertex="1" parent="82">
                    <mxGeometry width="160" height="29" as="geometry">
                        <mxRectangle width="160" height="29" as="alternateBounds"/>
                    </mxGeometry>
                </mxCell>
                <mxCell id="57" value="" style="shape=tableRow;horizontal=0;startSize=0;swimlaneHead=0;swimlaneBody=0;top=0;left=0;bottom=0;right=0;collapsible=0;dropTarget=0;fillColor=none;points=[[0,0.5],[1,0.5]];portConstraint=eastwest;rounded=1;" vertex="1" parent="48">
                    <mxGeometry y="115" width="160" height="29" as="geometry"/>
                </mxCell>
                <mxCell id="58" value="lastname" style="shape=partialRectangle;html=1;whiteSpace=wrap;connectable=0;fillColor=none;top=0;left=0;bottom=0;right=0;overflow=hidden;fontColor=#CCCCCC;rounded=1;" vertex="1" parent="57">
                    <mxGeometry width="160" height="29" as="geometry">
                        <mxRectangle width="160" height="29" as="alternateBounds"/>
                    </mxGeometry>
                </mxCell>
                <mxCell id="61" style="shape=tableRow;horizontal=0;startSize=0;swimlaneHead=0;swimlaneBody=0;top=0;left=0;bottom=0;right=0;collapsible=0;dropTarget=0;fillColor=none;points=[[0,0.5],[1,0.5]];portConstraint=eastwest;rounded=1;" vertex="1" parent="48">
                    <mxGeometry y="144" width="160" height="29" as="geometry"/>
                </mxCell>
                <mxCell id="62" value="clinic" style="shape=partialRectangle;html=1;whiteSpace=wrap;connectable=0;fillColor=none;top=0;left=0;bottom=0;right=0;overflow=hidden;fontColor=#CCCCCC;rounded=1;" vertex="1" parent="61">
                    <mxGeometry width="160" height="29" as="geometry">
                        <mxRectangle width="160" height="29" as="alternateBounds"/>
                    </mxGeometry>
                </mxCell>
                <mxCell id="67" style="shape=tableRow;horizontal=0;startSize=0;swimlaneHead=0;swimlaneBody=0;top=0;left=0;bottom=0;right=0;collapsible=0;dropTarget=0;fillColor=none;points=[[0,0.5],[1,0.5]];portConstraint=eastwest;rounded=1;" vertex="1" parent="48">
                    <mxGeometry y="173" width="160" height="27" as="geometry"/>
                </mxCell>
                <mxCell id="68" value="position" style="shape=partialRectangle;html=1;whiteSpace=wrap;connectable=0;fillColor=none;top=0;left=0;bottom=0;right=0;overflow=hidden;fontColor=#CCCCCC;rounded=1;" vertex="1" parent="67">
                    <mxGeometry width="160" height="27" as="geometry">
                        <mxRectangle width="160" height="27" as="alternateBounds"/>
                    </mxGeometry>
                </mxCell>
                <mxCell id="65" style="shape=tableRow;horizontal=0;startSize=0;swimlaneHead=0;swimlaneBody=0;top=0;left=0;bottom=0;right=0;collapsible=0;dropTarget=0;fillColor=none;points=[[0,0.5],[1,0.5]];portConstraint=eastwest;rounded=1;" vertex="1" parent="48">
                    <mxGeometry y="200" width="160" height="29" as="geometry"/>
                </mxCell>
                <mxCell id="66" value="email" style="shape=partialRectangle;html=1;whiteSpace=wrap;connectable=0;fillColor=none;top=0;left=0;bottom=0;right=0;overflow=hidden;fontColor=#CCCCCC;rounded=1;" vertex="1" parent="65">
                    <mxGeometry width="160" height="29" as="geometry">
                        <mxRectangle width="160" height="29" as="alternateBounds"/>
                    </mxGeometry>
                </mxCell>
                <mxCell id="69" value="rules" style="shape=table;startSize=30;container=1;collapsible=0;childLayout=tableLayout;fontStyle=1;align=center;fontSize=13;strokeWidth=2;fillColor=#f5f5f5;strokeColor=#666666;fillStyle=auto;rounded=1;fontColor=#333333;" vertex="1" parent="1">
                    <mxGeometry x="444" y="355.5" width="160" height="144" as="geometry"/>
                </mxCell>
                <mxCell id="70" value="" style="shape=tableRow;horizontal=0;startSize=0;swimlaneHead=0;swimlaneBody=0;top=0;left=0;bottom=0;right=0;collapsible=0;dropTarget=0;fillColor=none;points=[[0,0.5],[1,0.5]];portConstraint=eastwest;rounded=1;" vertex="1" parent="69">
                    <mxGeometry y="30" width="160" height="29" as="geometry"/>
                </mxCell>
                <mxCell id="71" value="haya_starttime" style="shape=partialRectangle;html=1;whiteSpace=wrap;connectable=0;fillColor=none;top=0;left=0;bottom=0;right=0;overflow=hidden;fontColor=#CCCCCC;rounded=1;" vertex="1" parent="70">
                    <mxGeometry width="160" height="29" as="geometry">
                        <mxRectangle width="160" height="29" as="alternateBounds"/>
                    </mxGeometry>
                </mxCell>
                <mxCell id="72" value="" style="shape=tableRow;horizontal=0;startSize=0;swimlaneHead=0;swimlaneBody=0;top=0;left=0;bottom=0;right=0;collapsible=0;dropTarget=0;fillColor=none;points=[[0,0.5],[1,0.5]];portConstraint=eastwest;rounded=1;" vertex="1" parent="69">
                    <mxGeometry y="59" width="160" height="27" as="geometry"/>
                </mxCell>
                <mxCell id="73" value="haya_endtime" style="shape=partialRectangle;html=1;whiteSpace=wrap;connectable=0;fillColor=none;top=0;left=0;bottom=0;right=0;overflow=hidden;fontColor=#CCCCCC;rounded=1;" vertex="1" parent="72">
                    <mxGeometry width="160" height="27" as="geometry">
                        <mxRectangle width="160" height="27" as="alternateBounds"/>
                    </mxGeometry>
                </mxCell>
                <mxCell id="74" value="" style="shape=tableRow;horizontal=0;startSize=0;swimlaneHead=0;swimlaneBody=0;top=0;left=0;bottom=0;right=0;collapsible=0;dropTarget=0;fillColor=none;points=[[0,0.5],[1,0.5]];portConstraint=eastwest;rounded=1;" vertex="1" parent="69">
                    <mxGeometry y="86" width="160" height="29" as="geometry"/>
                </mxCell>
                <mxCell id="75" value="oso_starttime" style="shape=partialRectangle;html=1;whiteSpace=wrap;connectable=0;fillColor=none;top=0;left=0;bottom=0;right=0;overflow=hidden;fontColor=#CCCCCC;rounded=1;" vertex="1" parent="74">
                    <mxGeometry width="160" height="29" as="geometry">
                        <mxRectangle width="160" height="29" as="alternateBounds"/>
                    </mxGeometry>
                </mxCell>
                <mxCell id="76" style="shape=tableRow;horizontal=0;startSize=0;swimlaneHead=0;swimlaneBody=0;top=0;left=0;bottom=0;right=0;collapsible=0;dropTarget=0;fillColor=none;points=[[0,0.5],[1,0.5]];portConstraint=eastwest;rounded=1;" vertex="1" parent="69">
                    <mxGeometry y="115" width="160" height="29" as="geometry"/>
                </mxCell>
                <mxCell id="77" value="oso_endtime" style="shape=partialRectangle;html=1;whiteSpace=wrap;connectable=0;fillColor=none;top=0;left=0;bottom=0;right=0;overflow=hidden;fontColor=#CCCCCC;rounded=1;" vertex="1" parent="76">
                    <mxGeometry width="160" height="29" as="geometry">
                        <mxRectangle width="160" height="29" as="alternateBounds"/>
                    </mxGeometry>
                </mxCell>
                <mxCell id="87" value="" style="endArrow=ERone;html=1;rounded=1;fontSize=13;fontColor=#CCCCCC;exitX=1;exitY=0.5;exitDx=0;exitDy=0;entryX=0;entryY=0.5;entryDx=0;entryDy=0;startArrow=ERone;startFill=0;endFill=0;" edge="1" parent="1" source="82" target="74">
                    <mxGeometry width="50" height="50" relative="1" as="geometry">
                        <mxPoint x="404" y="465.5" as="sourcePoint"/>
                        <mxPoint x="404" y="415.5" as="targetPoint"/>
                    </mxGeometry>
                </mxCell>
            </root>
        </mxGraphModel>
    </diagram>
</mxfile>